PathFileType	3	(X/Y/Z)	C:\Users\koon_\Desktop\
DataRate	CameraRate	NumFrames	NumMarkers	Units	OrigDataRate	OrigDataStartFrame	OrigNumFrames
100.0	100.0	10	27	mm	100.0	2892	3304	
Frame#	Time	GM:LFHD			GM:RFHD			GM:LBHD			GM:RBHD			GM:C7			GM:T10			GM:CLAV			GM:STRN			GM:RBAK			GM:LSHO			GM:LUPA			GM:LELB			GM:LFRA			GM:LWRA			GM:LWRB			GM:LFIN			GM:RSHO			GM:RUPA			GM:RELB			GM:RFRA			GM:RWRA			GM:RWRB			GM:RFIN			GM:LASI			GM:RASI			GM:LPSI			GM:RPSI			
		X1	Y1	Z1	X2	Y2	Z2	X3	Y3	Z3	X4	Y4	Z4	X5	Y5	Z5	X6	Y6	Z6	X7	Y7	Z7	X8	Y8	Z8	X9	Y9	Z9	X10	Y10	Z10	X11	Y11	Z11	X12	Y12	Z12	X13	Y13	Z13	X14	Y14	Z14	X15	Y15	Z15	X16	Y16	Z16	X17	Y17	Z17	X18	Y18	Z18	X19	Y19	Z19	X20	Y20	Z20	X21	Y21	Z21	X22	Y22	Z22	X23	Y23	Z23	X24	Y24	Z24	X25	Y25	Z25	X26	Y26	Z26	X27	Y27	Z27	
2892	28.91	131.3793	1606.106	-93.553703	-22.509594	1596.77	-93.685104	132.24004	1592.1096	-226.16609	-30.641466	1584.5286	-208.76666	60.241714	1415.1823	-266.50391	66.761383	1218.5712	-299.76138	66.902573	1365.8147	-105.985	68.414436	1221.7448	-50.649368	-26.441771	1295.0275	-312.26547	229.13509	1397.2542	-201.4653	326.9715	1335.6667	-196.04309	459.90445	1180.7349	-201.82802	462.95993	1276.9587	-89.064537	484.81998	1315.4309	-34.613178	543.49646	1282.0051	-26.346258	522.39111	1370.6783	28.971071	-113.83927	1394.0284	-193.3439	-270.42227	1257.6625	-166.80743	-340.26398	1180.2012	-169.58723	-328.33853	1260.9094	-117.50773	-358.20331	1328.2367	-15.659418	-408.41757	1293.5768	-2.6557248	-396.90402	1389.235	14.819605	202.07272	900.58948	-74.273346	-90.044479	909.5849	-85.192467	143.5507	948.87122	-288.23755	-20.931002	936.00446	-294.60529
2893	28.92	131.62973	1606.2144	-94.053162	-22.281908	1597.017	-94.14019	132.49448	1591.9542	-226.61783	-30.387348	1584.5356	-209.20827	60.346645	1415.1534	-266.50958	66.814781	1218.5623	-299.70804	67.110466	1365.6785	-105.88038	68.494827	1221.6271	-50.631535	-26.616276	1295.5841	-312.37054	229.80836	1396.7687	-201.03816	326.61273	1333.1068	-195.55583	456.37637	1174.8815	-203.06026	461.45569	1266.635	-86.961555	484.01755	1301.8741	-29.450205	541.40613	1266.5477	-23.06481	522.11816	1353.3719	35.903591	-114.27471	1393.1403	-192.3699	-268.7486	1253.3204	-167.42336	-337.07547	1174.4683	-171.76825	-327.11636	1252.856	-115.98112	-357.70947	1314.4786	-10.689817	-407.30487	1278.0934	0.97676015	-397.22339	1373.2904	23.445278	202.02193	900.64435	-74.246147	-90.459969	909.52539	-85.725349	143.40073	948.85437	-288.16281	-21.045164	936.0011	-294.45078
2894	28.93	132.00121	1606.3192	-94.54097	-21.98032	1597.2018	-94.515472	132.73131	1591.7881	-227.08134	-30.53175	1584.3552	-209.61021	60.351662	1415.1267	-266.35999	66.849586	1218.59	-299.59955	67.324371	1365.5154	-105.76606	68.562752	1221.536	-50.877258	-26.868732	1296.1615	-312.27109	230.43008	1396.2473	-200.56929	326.16739	1330.5338	-195.12836	452.73993	1169.0254	-204.40416	459.63647	1256.1372	-84.581245	482.76553	1288.1659	-25.424814	538.98352	1250.7469	-20.327581	521.37604	1335.5394	42.415573	-114.71703	1392.2222	-191.12878	-267.09335	1248.7593	-168.13545	-333.9234	1168.813	-173.81639	-325.89236	1244.7285	-114.70638	-356.65897	1300.1503	-5.8507485	-405.41177	1262.0458	4.1797414	-396.10068	1356.3236	31.711657	201.98102	900.63239	-74.169106	-90.432487	909.49823	-85.582237	143.23566	948.82025	-288.13541	-21.255468	935.99457	-294.29404
2895	28.94	132.27502	1606.4755	-94.98484	-21.630295	1597.4496	-94.90789	132.94922	1591.5863	-227.43826	-30.311571	1584.2772	-209.9603	60.377453	1415.21	-266.20978	66.891357	1218.5977	-299.49429	67.611389	1365.3575	-105.67865	68.762344	1221.3545	-50.653885	-27.101553	1296.6335	-312.00882	231.11761	1395.6635	-200.03732	325.71289	1327.856	-194.71194	448.97711	1163.2458	-205.70331	457.50046	1245.2776	-81.968956	481.55005	1274.3113	-22.217936	536.25714	1235.0769	-18.083731	520.33539	1317.5242	48.446819	-115.14274	1391.4043	-189.90253	-265.1824	1243.8854	-168.32085	-330.67703	1163.2241	-176.00024	-324.16498	1236.3486	-113.28822	-355.14313	1285.3174	-1.3120767	-403.07486	1245.8236	6.7716551	-395.46994	1338.6984	39.405064	201.98787	900.63403	-74.126312	-90.447128	909.46301	-85.364571	143.12798	948.82123	-288.08041	-21.418703	936.01947	-294.1265
2896	28.95	132.56935	1606.6145	-95.421066	-21.318613	1597.6433	-95.19944	133.20607	1591.3842	-227.81079	-30.050217	1584.1997	-210.30661	60.352139	1415.333	-265.95041	67.001755	1218.5544	-299.38348	67.832031	1365.1335	-105.57976	69.027321	1221.2101	-50.49847	-27.397585	1296.9701	-311.60437	231.84151	1395.1328	-199.43425	325.28394	1325.1217	-194.09187	445.14935	1157.6627	-207.00214	455.36133	1234.6178	-80.355164	479.33102	1259.7942	-18.470209	533.2478	1219.4485	-16.342876	518.46069	1298.5651	54.391319	-115.49294	1390.6331	-188.70599	-263.51971	1238.9326	-168.9702	-327.26663	1157.7786	-178.28778	-321.95331	1227.8396	-111.57852	-353.07187	1269.9019	3.0885239	-400.32901	1229.4434	8.902915	-394.07373	1320.3077	46.500313	202.03635	900.56238	-74.091026	-90.108719	909.44727	-84.500313	142.90907	948.76416	-288.05322	-21.642214	936.04852	-293.8475
2897	28.96	132.87563	1606.7144	-95.88427	-21.059296	1597.8604	-95.578255	133.43095	1591.1478	-228.25568	-29.849174	1584.1178	-210.60001	60.404892	1415.4188	-265.75723	67.108467	1218.5366	-299.27713	68.051613	1364.8904	-105.45892	69.31929	1221.0265	-50.294655	-27.617449	1297.2207	-311.22635	232.5193	1394.5936	-198.68425	324.83234	1322.4048	-193.40643	441.35013	1152.3217	-208.42154	452.49393	1223.2787	-78.12558	476.54376	1244.8325	-14.67404	530.09863	1203.7828	-14.946009	516.40106	1279.0919	59.89259	-115.85641	1389.9683	-187.70764	-261.64493	1234.144	-169.47839	-323.88141	1152.6805	-180.57983	-319.67206	1219.3746	-110.1495	-350.58441	1254.015	7.0451617	-396.99506	1212.6165	10.661527	-392.98828	1301.2167	52.939789	202.10211	900.42688	-74.063972	-90.162666	909.4422	-84.264221	142.78941	948.77283	-288.00388	-21.801846	936.08844	-293.6478
2898	28.97	133.17587	1606.8284	-96.338181	-20.733622	1598.1547	-95.927734	133.64316	1590.9066	-228.66437	-29.709085	1584.0302	-210.85629	60.509346	1415.4893	-265.54648	67.218437	1218.4946	-299.16397	68.25885	1364.6484	-105.25898	69.579742	1220.8445	-50.145504	-27.793242	1297.3516	-310.87161	233.14482	1394.1686	-197.98555	324.28931	1319.7272	-192.80365	437.44855	1147.262	-209.76599	449.52881	1212.0071	-76.066109	473.57394	1229.5894	-11.295844	526.50745	1187.9348	-13.827045	514.0423	1258.9034	64.894783	-116.15974	1389.3225	-186.85506	-259.71561	1229.792	-170.06113	-320.44446	1147.8268	-182.81645	-316.93735	1210.601	-108.73859	-348.33133	1237.7876	10.740425	-393.08725	1195.2742	11.993529	-391.68646	1280.8511	59.361893	202.19197	900.32819	-74.062813	-90.172821	909.40289	-83.973206	142.62515	948.74884	-287.92279	-21.943941	936.12805	-293.37909
2899	28.98	133.50819	1606.9642	-96.734383	-20.447168	1598.3901	-96.132233	133.83153	1590.6183	-229.11346	-29.52305	1583.9846	-211.12128	60.565498	1415.4268	-265.38196	67.292473	1218.4061	-299.04865	68.354492	1364.4158	-105.15598	69.892067	1220.7168	-49.872978	-27.876419	1297.4132	-310.6235	233.67032	1393.8591	-197.40279	323.64139	1317.3911	-192.36703	433.54208	1142.5222	-210.92822	446.7522	1200.8883	-73.89592	470.52295	1214.126	-8.211319	522.50195	1171.5923	-12.925547	511.37054	1238.0559	69.534447	-116.41747	1388.5835	-186.09845	-257.38379	1225.8575	-170.2937	-316.94284	1143.184	-184.97781	-314.28162	1201.7557	-107.47915	-345.03833	1221.2737	13.5359	-388.61945	1177.264	13.04633	-390.07925	1259.73	65.217064	202.25119	900.17639	-74.041138	-90.20797	909.40668	-83.691895	142.44366	948.70361	-287.72812	-22.092695	936.15521	-293.13318
2900	28.99	133.81129	1607.0363	-97.168015	-20.08674	1598.6527	-96.363197	133.95706	1590.3022	-229.48973	-28.986597	1584.0128	-211.36534	60.525963	1415.3116	-265.34985	67.37146	1218.3451	-298.82373	68.481522	1364.1962	-105.02126	70.160446	1220.5649	-49.621479	-27.873428	1297.5696	-310.62793	234.02966	1393.6334	-197.03415	322.91547	1315.39	-192.01016	429.47186	1138.0771	-212.04919	443.08997	1189.4729	-72.133835	466.89853	1198.6453	-5.5863452	517.95624	1154.6703	-12.197528	508.15433	1216.4902	73.482353	-116.67855	1387.9354	-185.3082	-255.25427	1222.2122	-170.85208	-313.34064	1138.6729	-187.14664	-311.59045	1192.8947	-106.35155	-342.26328	1204.6541	15.943822	-383.74295	1158.748	13.274538	-387.87128	1237.896	70.746246	202.25995	900.02478	-73.935677	-90.243942	909.36884	-83.405769	142.29845	948.68964	-287.65857	-22.258327	936.19861	-292.84937
2901	29	134.09561	1607.114	-97.613487	-19.765032	1598.8694	-96.555237	134.0623	1590.0135	-229.79317	-28.902897	1583.9609	-211.51149	60.495323	1415.1852	-265.34988	67.453033	1218.2476	-298.65137	68.631653	1364.0365	-104.87028	70.378868	1220.4467	-49.412418	-27.916605	1297.8237	-310.45627	234.2861	1393.4746	-196.83508	322.16711	1313.6859	-191.91747	425.31802	1133.9404	-212.95815	439.47406	1176.9937	-70.360443	463.51364	1182.4781	-3.1828322	512.91003	1137.3217	-11.907114	504.40967	1194.3304	76.847374	-116.97204	1387.2999	-184.48033	-253.02931	1218.6536	-171.27808	-309.69818	1134.2061	-188.99007	-308.8566	1183.6921	-105.51247	-338.90558	1187.9557	17.318933	-378.65903	1140.2954	12.614885	-384.5556	1215.863	75.525284	202.27792	899.86011	-73.837379	-90.178703	909.33167	-83.058472	142.1539	948.66815	-287.48618	-22.360752	936.18188	-292.59988
